<?xml version="1.0" encoding="utf-8"?>
<svg xmlns="http://www.w3.org/2000/svg">
<symbol id="clear-day" viewBox="0 0 32 32">
<title>clear-day</title>
<path d="M3.008 16q0-0.416 0.288-0.704t0.704-0.288h1.984q0.448 0 0.736 0.288t0.288 0.704-0.288 0.736-0.736 0.256h-1.984q-0.448 0-0.704-0.256t-0.288-0.736zM6.816 25.184q-0.352-0.352-0.352-0.704t0.352-0.736l1.44-1.376q0.32-0.384 0.704-0.384l0.672 0.352q0.32 0.384 0.32 0.736t-0.32 0.672l-1.376 1.44q-0.384 0.352-0.736 0.352t-0.704-0.352zM6.816 8.256q-0.352-0.384-0.352-0.736t0.352-0.704 0.704-0.32 0.736 0.32l1.376 1.44q0.32 0.352 0.32 0.704t-0.32 0.672-0.704 0.352l-0.672-0.352zM8.992 16q0-2.88 2.080-4.928t4.928-2.048 4.928 2.048 2.048 4.928-2.048 4.928-4.928 2.080-4.928-2.080-2.080-4.928zM11.008 16q0 2.080 1.44 3.552t3.552 1.44 3.488-1.408q1.504-1.504 1.504-3.584t-1.472-3.52-3.52-1.472-3.552 1.472-1.44 3.52zM15.008 28v-1.984q0-0.448 0.256-0.736t0.736-0.288 0.704 0.288 0.288 0.736v1.984q0 0.448-0.288 0.736t-0.704 0.256-0.736-0.256-0.256-0.736zM15.008 6.016v-2.016q0-0.416 0.256-0.704t0.736-0.288 0.704 0.288 0.288 0.704v2.016q0 0.448-0.288 0.704t-0.704 0.288-0.736-0.288-0.256-0.704zM22.368 23.744q-0.352-0.32-0.352-0.672t0.352-0.704 0.672-0.32l0.704 0.32 1.44 1.376q0.32 0.384 0.32 0.736t-0.32 0.704-0.704 0.352-0.736-0.352zM22.368 9.632q-0.352-0.352-0.352-0.672t0.352-0.704l1.376-1.44q0.384-0.32 0.736-0.32t0.704 0.32 0.32 0.704-0.32 0.736l-1.44 1.376q-0.352 0.352-0.704 0.352zM24.992 16q0-0.416 0.288-0.704t0.704-0.288h2.016q0.416 0 0.704 0.288t0.288 0.704-0.288 0.736-0.704 0.256h-2.016q-0.448 0-0.704-0.256t-0.288-0.736z"/>

</symbol>
<symbol id="clear-night" viewBox="0 0 32 32">
<title>clear-night</title>
<path d="M8.192 15.808q0-3.296 2.368-5.664 1.248-1.248 3.008-1.888 0.16-0.064 0.32-0.064 0.384 0 0.672 0.32t0.32 0.704q0 0.16-0.064 0.352-0.352 0.96-0.352 1.984 0 0.672 0.16 1.344 0.384 1.664 1.6 2.88t2.88 1.6q0.672 0.16 1.344 0.16 1.024 0 1.984-0.352 0.192-0.064 0.352-0.064 0.384 0 0.704 0.32t0.32 0.672q0 0.16-0.064 0.32-0.64 1.76-1.888 3.008-2.368 2.368-5.664 2.368t-5.664-2.336-2.336-5.664zM10.176 15.776q0 2.496 1.76 4.288 1.728 1.728 4.192 1.728 0.192 0 0.384 0 2.752-0.192 4.352-2.272-0.32 0-0.64 0-3.136 0-5.44-2.304t-2.304-5.44q0-0.32 0-0.64-0.32 0.192-0.544 0.448-1.76 1.728-1.76 4.192z"/>

</symbol>
<symbol id="partly-cloudy-day" viewBox="0 0 32 32">
<title>partly-cloudy-day</title>
<path d="M0 23.008q0-2.816 1.984-4.832t4.768-2.176q-0.768-1.44-0.768-2.976 0-2.88 2.080-4.96t4.928-2.048q2.848 0 4.896 1.984 2.016 1.984 2.112 4.896 2.4 1.024 4 3.168 0.416-0.064 0.992-0.064 2.88 0 4.928 2.080t2.048 4.928-2.048 4.928-4.928 2.080q-1.344 0-2.496-0.448-2.816 2.432-6.496 2.432t-6.496-2.432q-1.184 0.448-2.496 0.448-2.88 0-4.96-2.080t-2.048-4.928zM0 13.024q0-0.448 0.288-0.736t0.704-0.288h2.016q0.416 0 0.704 0.288t0.288 0.736-0.288 0.704-0.704 0.288h-2.016q-0.416 0-0.704-0.288t-0.288-0.704zM2.016 23.008q0 2.048 1.44 3.52t3.552 1.472q1.536 0 2.848-0.928 2.464 2.944 6.144 2.944t6.112-2.944q1.312 0.928 2.88 0.928 2.048 0 3.52-1.472t1.472-3.52-1.472-3.52-3.52-1.472q-0.992 0-1.888 0.352-1.184-2.24-3.424-3.424-0.896-0.512-1.888-0.672-0.896-0.256-1.792-0.256-3.68 0-6.144 2.88-0.608 0.736-0.992 1.472-0.032 0-0.48-0.096-0.736-0.256-1.376-0.256-2.080 0-3.552 1.472t-1.44 3.52zM3.808 5.248q-0.352-0.352-0.352-0.704t0.352-0.704 0.704-0.352 0.736 0.352l1.376 1.408q0.352 0.352 0.352 0.704t-0.352 0.672-0.704 0.352l-0.672-0.352zM8 13.024q0 1.184 0.608 2.304 2.944-3.328 7.392-3.328 0.864 0 1.92 0.192-0.288-1.792-1.664-3.008t-3.264-1.184q-2.048 0-3.52 1.472t-1.472 3.552zM12 3.008v-1.984q0-0.448 0.288-0.736t0.704-0.256 0.736 0.256 0.256 0.736v1.984q0 0.448-0.256 0.736t-0.736 0.256-0.704-0.256-0.288-0.736zM19.36 6.624q-0.352-0.32-0.352-0.672t0.352-0.704l1.376-1.408q0.384-0.352 0.736-0.352t0.704 0.352 0.352 0.704-0.352 0.704l-1.44 1.376q-0.352 0.352-0.672 0.352zM21.984 13.024q0-0.448 0.288-0.736t0.704-0.288h2.016q0.448 0 0.704 0.288t0.288 0.736-0.288 0.704-0.704 0.288h-2.016q-0.416 0-0.704-0.288t-0.288-0.704z"/>

</symbol>
<symbol id="partly-cloudy-night" viewBox="0 0 32 32">
<title>partly-cloudy-night</title>
<path d="M0.064 23.008q0-2.88 2.048-4.928t4.96-2.080q0.544 0 0.992 0.064 2.496-3.424 6.752-4-0.32-0.992-0.32-2.048 0-0.96 0.288-2.016 0.512-2.112 2.016-3.616 1.248-1.248 3.008-1.856 0.224-0.096 0.416-0.096 0.352 0 0.64 0.288 0.32 0.352 0.32 0.704 0 0.16-0.064 0.352-0.384 1.024-0.384 2.080 0 0.64 0.128 1.248 0.384 1.664 1.6 2.912t2.912 1.632q0.64 0.128 1.248 0.128 1.056 0 2.112-0.384 0.16-0.064 0.32-0.064 0.384 0 0.704 0.32 0.32 0.288 0.32 0.64 0 0.192-0.096 0.416-0.64 1.728-1.888 2.976-0.224 0.256-0.864 0.704 2.112 0.672 3.456 2.496t1.344 4.128q0 2.88-2.048 4.928t-4.928 2.080q-1.344 0-2.496-0.448-2.816 2.432-6.496 2.432t-6.496-2.432q-1.184 0.448-2.496 0.448-2.88 0-4.96-2.080t-2.048-4.928zM2.048 23.008q0 2.048 1.472 3.52t3.552 1.472q1.536 0 2.848-0.928 2.464 2.944 6.144 2.944t6.112-2.944q1.312 0.928 2.88 0.928 2.048 0 3.52-1.472t1.472-3.52-1.472-3.52-3.52-1.472q-0.992 0-1.888 0.352-0.064-0.064-0.16-0.192t-0.096-0.224q-0.8-1.28-1.856-2.208-1.216-0.896-2.688-1.376-1.12-0.352-2.304-0.352-0.448 0-0.448 0.064-2.208 0.064-3.936 1.248t-2.752 3.040q-0.864-0.352-1.856-0.352-2.080 0-3.552 1.472t-1.472 3.52zM16.608 8.768q-0.128 0.64-0.128 1.28 0 1.056 0.384 2.016 4.288 0.32 7.008 3.744 2.080-0.48 3.296-2.048-0.256 0-0.48 0-3.232 0-5.632-2.336-2.336-2.336-2.336-5.472 0-0.32 0.032-0.64-0.256 0.192-0.512 0.448-1.248 1.248-1.632 3.008z"/>

</symbol>
<symbol id="cloudy" viewBox="0 0 32 32">
<title>cloudy</title>
<path d="M0 23.008q0-2.88 2.048-4.928t4.96-2.080q0.544 0 0.992 0.064 0.032-0.128 0.128-0.128-0.128-0.576-0.128-0.928 0-2.304 1.632-3.936t3.936-1.632h0.416q2.336-2.88 6.016-2.88t5.984 2.88h0.448q2.304 0 3.936 1.632t1.6 3.936q0 2.112-1.472 3.744 1.472 1.952 1.472 4.256 0 2.88-2.048 4.928t-4.928 2.080q-1.344 0-2.496-0.448-2.816 2.432-6.496 2.432t-6.496-2.432q-1.184 0.448-2.496 0.448-2.88 0-4.96-2.080t-2.048-4.928zM2.016 23.008q0 2.048 1.44 3.52t3.552 1.472q1.536 0 2.848-0.928 2.464 2.944 6.144 2.944t6.112-2.944q1.312 0.928 2.88 0.928 2.048 0 3.52-1.472t1.472-3.52q0-1.664-1.056-3.072-0.736-0.928-1.792-1.408t-2.144-0.512l-0.832 0.064q-0.576 0.096-1.056 0.288-1.024-1.984-2.912-3.168t-4.192-1.184q-3.328 0-5.696 2.432-0.768 0.832-1.312 1.76 0 0.16-0.128 0.16-0.864-0.352-1.856-0.352-2.080 0-3.552 1.472t-1.44 3.52zM10.176 13.888q2.624-1.888 5.824-1.888 2.336 0 4.48 1.056 2.112 1.056 3.52 3.008 0.416-0.064 0.992-0.064 2.272 0 4.128 1.376 0.864-1.056 0.864-2.368 0-1.504-1.024-2.528t-2.528-1.024q-0.736 0-1.376 0.256-0.704-1.376-2.080-2.272-1.376-0.864-2.976-0.864t-3.008 0.864q-1.376 0.896-2.048 2.272-0.672-0.256-1.376-0.256-1.184 0-2.112 0.672-0.896 0.672-1.28 1.76z"/>

</symbol>
<symbol id="fahrenheit" viewBox="0 0 32 32">
<title>fahrenheit</title>
<path d="M8.832 12.448q0.064-0.64 0.48-1.152t1.024-0.736q0.96-0.352 1.92 0t1.312 1.248q0.384 0.896 0 1.824t-1.312 1.312q-0.448 0.192-0.992 0.192t-0.96-0.192q-0.896-0.384-1.312-1.28-0.224-0.608-0.16-1.216zM10.176 12.768q0 0.416 0.32 0.736t0.768 0.32 0.8-0.32 0.32-0.736-0.32-0.768-0.8-0.288-0.768 0.288-0.32 0.768zM15.552 21.632v-11.072h7.616v2.016h-5.44v2.56h4.64v1.984h-4.64v4.512h-2.176z"/>

</symbol>
<symbol id="fog" viewBox="0 0 32 32">
<title>fog</title>
<path d="M1.952 18.944q0-0.448 0.32-0.704t0.864-0.288h5.376q-0.352-0.992-0.448-2.016h-3.136q-0.416 0-0.704-0.256t-0.288-0.736 0.288-0.704 0.704-0.288h3.136q0.096-0.992 0.448-2.016h-5.568q-0.448 0-0.736-0.256t-0.256-0.736 0.256-0.704 0.736-0.288h6.496q1.216-1.792 3.2-2.912 1.952-1.088 4.288-1.088 3.456 0 5.952 2.304 2.56 2.336 2.912 5.696h5.12q0.448 0 0.736 0.288t0.288 0.704-0.288 0.736-0.736 0.256h-5.12q-0.096 1.024-0.416 2.016h1.376q0.48 0 0.832 0.288t0.352 0.704-0.352 0.704-0.832 0.288h-2.336q-1.216 1.792-3.2 2.912-1.952 1.088-4.288 1.088t-4.288-1.088q-1.984-1.12-3.2-2.912h-6.304q-0.512 0-0.864-0.288t-0.32-0.704zM10.048 15.936q0.128 1.056 0.576 2.016h12.608q0.448-0.96 0.576-2.016h-13.76zM10.048 13.952h13.76q-0.384-2.592-2.304-4.288-1.952-1.728-4.576-1.728-2.784 0-4.864 2.016h4.864q0.448 0 0.704 0.288t0.288 0.704-0.288 0.736-0.704 0.256h-6.304q-0.448 0.96-0.576 2.016zM12.064 19.936q2.080 2.016 4.864 2.016t4.864-2.016h-9.728z"/>

</symbol>
<symbol id="hail" viewBox="0 0 32 32">
<title>hail</title>
<path d="M0 11.008q0-2.88 2.048-4.928t4.96-2.080q0.544 0 0.992 0.064 1.376-1.952 3.488-2.976 2.176-1.056 4.512-1.056t4.48 1.056q2.112 1.024 3.52 2.976 0.416-0.064 0.992-0.064 2.88 0 4.928 2.080t2.048 4.928-2.048 4.928-4.928 2.080q-1.344 0-2.496-0.448-2.816 2.432-6.496 2.432t-6.496-2.432q-1.184 0.448-2.496 0.448-2.88 0-4.96-2.080t-2.048-4.928zM2.016 11.008q0 2.048 1.44 3.52t3.552 1.472q0.896 0 1.728-0.32l1.12-0.416 0.96 0.8q2.24 1.952 5.184 1.952t5.184-1.952l0.928-0.8 1.12 0.416q0.864 0.32 1.76 0.32 2.048 0 3.52-1.472t1.472-3.52-1.472-3.52-3.52-1.472q-0.416 0-0.704 0.064l-1.184 0.192-0.736-1.024q-2.368-3.232-6.368-3.232t-6.368 3.232l-0.768 1.024-1.184-0.192q-0.256-0.064-0.672-0.064-2.080 0-3.552 1.472t-1.44 3.52zM4 22.016q0-0.832 0.608-1.408t1.376-0.608 1.376 0.64q0.64 0.544 0.64 1.376t-0.608 1.408-1.408 0.576-1.376-0.576-0.608-1.408zM8 30.016q0-0.832 0.576-1.408t1.408-0.608 1.376 0.64q0.64 0.544 0.64 1.376t-0.608 1.408-1.408 0.576-1.408-0.576-0.576-1.408zM13.984 24q0-0.8 0.608-1.408t1.408-0.576 1.376 0.608q0.608 0.576 0.608 1.376t-0.576 1.408-1.408 0.608-1.408-0.608-0.608-1.408zM20 30.016q0-0.832 0.576-1.408t1.408-0.608 1.376 0.64q0.64 0.544 0.64 1.376t-0.608 1.408-1.408 0.576-1.408-0.576-0.576-1.408zM24 22.016q0-0.832 0.576-1.408t1.408-0.608 1.376 0.64q0.64 0.544 0.64 1.376t-0.608 1.408-1.408 0.576-1.408-0.576-0.576-1.408z"/>

</symbol>
<symbol id="humidity" viewBox="0 0 32 32">
<title>humidity</title>
<path d="M16.038 0c0 0-10.038 11.921-10.038 22.023s9.962 9.977 9.962 9.977 10.038-0.125 10.038-10.039-9.962-21.961-9.962-21.961zM16 28c-3.313 0-6-2.687-6-6 0-2.121 1.114-3.963 2.777-5.026-0.477 0.637-0.777 1.53-0.777 2.526 0 0.207 0.019 0.407 0.043 0.604-0.009 0.134-0.043 0.26-0.043 0.396 0 0.257 0.042 0.503 0.076 0.75-0.047 0.243-0.076 0.493-0.076 0.75 0 2.209 1.791 4 4 4 0.257 0 0.507-0.029 0.75-0.075 0.248 0.034 0.493 0.075 0.75 0.075 0.136 0 0.262-0.033 0.395-0.044 0.197 0.025 0.398 0.044 0.605 0.044 0.996 0 1.889-0.3 2.526-0.776-1.063 1.662-2.905 2.776-5.026 2.776z"/>

</symbol>
<symbol id="rain" viewBox="0 0 32 32">
<title>rain</title>
<path d="M0 11.008q0-2.88 2.048-4.928t4.96-2.080q0.544 0 0.992 0.064 1.376-1.952 3.488-2.976 2.176-1.056 4.512-1.056t4.48 1.056q2.112 1.024 3.52 2.976 0.416-0.064 0.992-0.064 2.88 0 4.928 2.080t2.048 4.928-2.048 4.928-4.928 2.080q-1.344 0-2.496-0.448-2.816 2.432-6.496 2.432t-6.496-2.432q-1.184 0.448-2.496 0.448-2.88 0-4.96-2.080t-2.048-4.928zM2.016 11.008q0 2.048 1.44 3.52t3.552 1.472q1.536 0 2.848-0.928 2.464 2.944 6.144 2.944t6.112-2.944q1.312 0.928 2.88 0.928 2.048 0 3.52-1.472t1.472-3.52-1.472-3.52-3.52-1.472q-0.992 0-1.888 0.384-1.024-1.984-2.912-3.2-1.888-1.184-4.192-1.184t-4.192 1.184q-1.888 1.216-2.944 3.2-0.864-0.384-1.856-0.384-2.080 0-3.552 1.472t-1.44 3.52zM5.984 24q0-1.12 2.016-4l0.512 0.768q0.544 0.832 0.992 1.728 0.48 1.024 0.48 1.504 0 0.8-0.576 1.408t-1.408 0.608-1.408-0.608-0.608-1.408zM14.048 30.016q0-1.12 2.016-4l0.48 0.736q0.576 0.864 1.024 1.76 0.48 1.024 0.48 1.504 0 0.8-0.576 1.408t-1.408 0.576-1.408-0.576-0.608-1.408zM21.984 28q0-1.12 2.016-4l0.48 0.768q0.576 0.832 0.992 1.728 0.512 1.024 0.512 1.504 0 0.8-0.576 1.408t-1.408 0.608-1.408-0.608-0.608-1.408z"/>

</symbol>
<symbol id="sleet" viewBox="0 0 32 32">
<title>sleet</title>
<path d="M0 11.008q0-2.88 2.048-4.928t4.96-2.080q0.544 0 0.992 0.064 1.376-1.952 3.488-2.976 2.176-1.056 4.512-1.056t4.48 1.056q2.112 1.024 3.52 2.976 0.416-0.064 0.992-0.064 2.88 0 4.928 2.080t2.048 4.928-2.048 4.928-4.928 2.080q-1.344 0-2.496-0.448-2.816 2.432-6.496 2.432t-6.496-2.432q-1.184 0.448-2.496 0.448-2.88 0-4.96-2.080t-2.048-4.928zM1.92 23.552q-0.032-0.096-0.032-0.224 0-0.448 0.48-0.576l0.768-0.192q0-0.384 0.192-0.672l-0.576-0.576q-0.224-0.224-0.224-0.448t0.224-0.448q0.224-0.256 0.48-0.256 0.224 0 0.448 0.224l0.576 0.544q0.288-0.096 0.672-0.16l0.192-0.768q0.16-0.48 0.544-0.48 0.128 0 0.256 0.064 0.512 0.128 0.512 0.544 0 0.096-0.064 0.256l-0.192 0.736q0.16 0.096 0.256 0.192 0.128 0.16 0.256 0.32l0.736-0.256q0.096 0 0.192 0 0.48 0 0.64 0.512 0.032 0.128 0.032 0.256 0 0.416-0.544 0.544l-0.736 0.192q0 0.384-0.192 0.672l0.544 0.576q0.288 0.224 0.288 0.48 0 0.192-0.256 0.416-0.224 0.256-0.48 0.256t-0.48-0.224l-0.512-0.544q-0.352 0.096-0.672 0.192l-0.256 0.736q-0.096 0.512-0.512 0.512-0.128 0-0.256-0.032-0.512-0.128-0.512-0.576 0-0.128 0.032-0.288l0.192-0.736q-0.224-0.128-0.512-0.512l-0.736 0.256q-0.096 0.032-0.16 0.032-0.512 0-0.608-0.544zM2.016 11.008q0 2.048 1.44 3.52t3.552 1.472q1.536 0 2.848-0.928 2.464 2.944 6.144 2.944t6.112-2.944q1.312 0.928 2.88 0.928 2.048 0 3.52-1.472t1.472-3.52-1.472-3.52-3.52-1.472q-0.992 0-1.888 0.384-1.024-1.984-2.912-3.2-1.888-1.184-4.192-1.184t-4.192 1.184q-1.888 1.216-2.944 3.2-0.864-0.384-1.856-0.384-2.080 0-3.552 1.472t-1.44 3.52zM4.608 23.2q0.224 0.224 0.448 0.224l0.48-0.224q0.224-0.224 0.224-0.416 0-0.224-0.256-0.48-0.224-0.256-0.48-0.256l-0.416 0.224q-0.256 0.256-0.256 0.48t0.256 0.448zM11.136 28.416q0.096-0.48 0.48-0.672l1.12-0.672q-0.064-0.32-0.064-0.608t0.064-0.576l-1.12-0.64q-0.384-0.256-0.48-0.672-0.064-0.16-0.064-0.32 0-0.256 0.128-0.544 0.224-0.384 0.672-0.512t0.864 0.128l1.12 0.672q0.448-0.448 1.024-0.608v-1.312q0-0.448 0.32-0.8t0.8-0.352 0.768 0.352 0.352 0.8v1.312q0.544 0.16 0.992 0.608l1.12-0.672q0.448-0.256 0.896-0.128t0.64 0.512q0.224 0.416 0.096 0.864t-0.512 0.672l-1.12 0.64q0.064 0.288 0.064 0.576t-0.064 0.608l1.12 0.672q0.384 0.192 0.512 0.672t-0.096 0.832q-0.224 0.384-0.672 0.512t-0.864-0.128l-1.12-0.64q-0.448 0.384-0.992 0.576v1.312q0 0.48-0.352 0.8t-0.768 0.32-0.8-0.32-0.32-0.8v-1.312q-0.544-0.192-1.024-0.576l-1.12 0.64q-0.416 0.224-0.864 0.128t-0.672-0.512q-0.128-0.224-0.128-0.512 0-0.16 0.064-0.32zM14.88 26.464q0 0.48 0.32 0.8t0.8 0.288 0.736-0.288q0.384-0.32 0.384-0.8t-0.352-0.768-0.768-0.32-0.8 0.32-0.32 0.768zM23.744 23.872q0.128-0.48 0.544-0.48 0.128 0 0.256 0.064l0.768 0.16q0.096-0.16 0.224-0.288 0.096-0.096 0.256-0.192l-0.192-0.768q-0.032-0.128-0.032-0.256 0-0.416 0.48-0.544 0.128-0.032 0.256-0.032 0.416 0 0.544 0.48l0.192 0.736q0.384 0.064 0.704 0.192l0.544-0.576q0.256-0.192 0.448-0.192 0.256 0 0.512 0.224 0.192 0.256 0.192 0.48t-0.192 0.448l-0.576 0.544q0.192 0.32 0.192 0.704l0.736 0.192q0.512 0.128 0.512 0.576 0 0.096-0.032 0.224-0.128 0.512-0.608 0.512-0.096 0-0.16 0l-0.768-0.256q-0.256 0.384-0.512 0.48l0.192 0.768q0.064 0.16 0.064 0.288 0 0.416-0.512 0.544-0.16 0.032-0.256 0.032-0.416 0-0.544-0.48l-0.224-0.768q-0.416-0.064-0.704-0.192l-0.512 0.576q-0.224 0.224-0.448 0.224-0.256 0-0.512-0.256-0.224-0.224-0.224-0.448t0.256-0.48l0.576-0.544q-0.192-0.288-0.192-0.704l-0.768-0.16q-0.544-0.16-0.544-0.576 0-0.096 0.064-0.256zM26.464 25.184q0.224 0.224 0.448 0.224l0.48-0.224q0.224-0.224 0.224-0.416 0-0.224-0.256-0.448-0.224-0.256-0.48-0.256l-0.416 0.224q-0.256 0.224-0.256 0.448t0.256 0.448z"/>

</symbol>
<symbol id="snow" viewBox="0 0 32 32">
<title>snow</title>
<path d="M0 11.008q0-2.88 2.048-4.928t4.96-2.080q0.544 0 0.992 0.064 1.376-1.952 3.488-2.976 2.176-1.056 4.512-1.056t4.48 1.056q2.112 1.024 3.52 2.976 0.416-0.064 0.992-0.064 2.88 0 4.928 2.080t2.048 4.928-2.048 4.928-4.928 2.080q-1.344 0-2.496-0.448-2.816 2.432-6.496 2.432t-6.496-2.432q-1.184 0.448-2.496 0.448-2.88 0-4.96-2.080t-2.048-4.928zM2.016 11.008q0 2.048 1.44 3.52t3.552 1.472q1.536 0 2.848-0.928 2.464 2.944 6.144 2.944t6.112-2.944q1.312 0.928 2.88 0.928 2.048 0 3.52-1.472t1.472-3.52-1.472-3.52-3.52-1.472q-0.992 0-1.888 0.384-1.024-1.984-2.912-3.2-1.888-1.184-4.192-1.184t-4.192 1.184q-1.888 1.216-2.944 3.2-0.864-0.384-1.856-0.384-2.080 0-3.552 1.472t-1.44 3.52zM11.136 28.416q0.096-0.48 0.48-0.672l1.12-0.672q-0.064-0.32-0.064-0.608t0.064-0.576l-1.12-0.64q-0.384-0.256-0.48-0.672-0.064-0.16-0.064-0.32 0-0.256 0.128-0.544 0.224-0.384 0.672-0.512t0.864 0.128l1.12 0.672q0.448-0.448 1.024-0.608v-1.312q0-0.448 0.32-0.8t0.8-0.352 0.768 0.352 0.352 0.8v1.312q0.544 0.16 0.992 0.608l1.12-0.672q0.448-0.256 0.896-0.128t0.64 0.512q0.128 0.288 0.128 0.544 0 0.16-0.032 0.32-0.128 0.416-0.512 0.672l-1.12 0.64q0.064 0.288 0.064 0.576t-0.064 0.608l1.12 0.672q0.384 0.192 0.512 0.672 0.032 0.16 0.032 0.32 0 0.288-0.128 0.512-0.224 0.384-0.672 0.512t-0.864-0.128l-1.12-0.64q-0.448 0.384-0.992 0.576v1.312q0 0.48-0.352 0.8t-0.768 0.32-0.8-0.32-0.32-0.8v-1.312q-0.544-0.192-1.024-0.576l-1.12 0.64q-0.416 0.224-0.864 0.128t-0.672-0.512q-0.128-0.224-0.128-0.512 0-0.16 0.064-0.32zM14.88 26.464q0 0.48 0.32 0.8t0.8 0.288 0.736-0.288q0.384-0.32 0.384-0.8t-0.352-0.768-0.768-0.32-0.8 0.32-0.32 0.768z"/>

</symbol>
<symbol id="spin1" viewBox="0 0 32 32">
<title>spin1</title>
<path d="M15.872 0c-5.632 0-10.592 2.88-13.472 7.232-0.576 0.864-1.056 1.76-1.472 2.72-0.384 0.928-0.672 1.92-0.896 2.944 0 0 0 0.032 0 0.032v0 0c0 0.032 0 0.064 0 0.064 0 0.224 0.16 0.384 0.352 0.384h3.232c0.16 0 0.32-0.128 0.352-0.288 0.928-3.616 3.488-6.592 6.848-8.096 0.64-0.32 1.312-0.544 2.016-0.736 0.992-0.224 1.984-0.352 3.040-0.352v0 0 0c0.8 0 1.6 0.064 2.368 0.224 0.16 0.032 0.32 0.064 0.448 0.096 0.192 0.032 0.32 0.096 0.448 0.128v0c0.16 0.032 0.352-0.032 0.416-0.192l1.632-2.784c0 0 0.032-0.032 0.032-0.064 0.064-0.192-0.032-0.416-0.224-0.48-0.704-0.224-1.376-0.416-2.080-0.544-0.16-0.032-0.288-0.032-0.416-0.064-0.864-0.16-1.728-0.224-2.624-0.224v0 0zM26.336 3.648c-0.16 0-0.288 0.064-0.352 0.192l-1.6 2.784c-0.096 0.128-0.064 0.32 0.064 0.448 0.928 0.928 1.728 2.016 2.336 3.232 0.128 0.224 0.224 0.448 0.352 0.704 0.608 1.472 0.96 3.104 0.96 4.832v0 0c0 2.464-0.704 4.768-1.984 6.688-0.224 0.352-0.48 0.736-0.768 1.056-0.288 0.352-0.576 0.672-0.896 0.992v0 0 0c-0.128 0.128-0.16 0.32-0.064 0.448l1.6 2.784c0 0.032 0.032 0.064 0.064 0.096 0.128 0.16 0.352 0.16 0.512 0.032 1.856-1.664 3.328-3.744 4.288-6.080 0.192-0.48 0.352-0.928 0.48-1.408 0.448-1.472 0.672-3.008 0.672-4.608 0-3.456-1.088-6.688-2.944-9.312-0.352-0.512-0.736-0.992-1.184-1.472-0.416-0.448-0.832-0.896-1.312-1.312v0c-0.032-0.032-0.032-0.032-0.064-0.032-0.064-0.032-0.128-0.064-0.16-0.064zM0.384 18.624v0c-0.032 0-0.064 0-0.096 0-0.192 0.032-0.32 0.256-0.288 0.448 1.088 5.312 4.768 9.664 9.664 11.712 0.96 0.384 1.952 0.672 2.976 0.896 1.024 0.192 2.112 0.32 3.2 0.32v0 0c1.28 0 2.528-0.16 3.744-0.448 0.224-0.032 0.448-0.096 0.704-0.16 0.192-0.064 0.416-0.16 0.64-0.224 0.032 0 0.064-0.032 0.096-0.032 0.192-0.096 0.256-0.32 0.128-0.512l-1.6-2.784c-0.096-0.16-0.256-0.224-0.416-0.192-0.448 0.128-0.896 0.224-1.344 0.288-0.096 0.032-0.192 0.032-0.256 0.064-0.576 0.064-1.12 0.096-1.696 0.096v0 0c-4.096 0-7.744-2.016-9.952-5.12-0.032 0-0.032 0-0.032 0-0.416-0.608-0.8-1.28-1.12-1.952s-0.576-1.376-0.768-2.080c-0.032-0.192-0.192-0.32-0.352-0.32h-3.232z"/>

</symbol>
<symbol id="strong-wind" viewBox="0 0 29 32">
<title>strong-wind</title>
<path d="M24 4.32q2.080 0 3.552 1.472t1.44 3.52-1.44 3.552-3.552 1.44h-3.648q0.32 0.864 0.32 1.696 0 2.080-1.44 3.552t-3.552 1.44h-10.688q-0.672 0-1.184 0.512t-0.48 1.184 0.48 1.152 1.184 0.48 1.184 0.512 0.512 1.152-0.512 1.184-1.184 0.512q-2.080 0-3.52-1.472t-1.472-3.52 1.472-3.552 3.52-1.472h10.688q0.672 0 1.152-0.48t0.48-1.184-0.48-1.184-1.152-0.512h-9.984q-0.704 0-1.184-0.48t-0.512-1.152 0.512-1.184 1.184-0.48h18.304q0.672 0 1.184-0.512t0.512-1.184-0.512-1.152-1.184-0.48-1.184-0.512-0.48-1.184 0.48-1.152 1.184-0.512z"/>

</symbol>
<symbol id="temperatire" viewBox="0 0 17 32">
<title>temperatire</title>
<path d="M9.152 21.12q1.088 0.256 1.824 1.152t0.704 2.048q0 1.344-0.992 2.336t-2.368 1.024-2.336-0.992-0.992-2.368q0-1.184 0.736-2.048t1.792-1.152v-9.28q0-0.32 0.256-0.576t0.544-0.288 0.576 0.288 0.256 0.576v9.28zM14.176 18.432q2.496 2.528 2.496 5.888 0 3.424-2.464 5.888t-5.888 2.464-5.888-2.464-2.432-5.888q0-3.424 2.496-5.888v-13.28q0-2.4 1.696-4.128t4.128-1.728 4.128 1.728 1.728 4.128v13.28zM8.32 29.312q2.080 0 3.552-1.472t1.44-3.52q0-2.816-2.464-4.288v-14.88q0-0.992-0.736-1.728t-1.792-0.768-1.76 0.768-0.704 1.728v14.88q-2.528 1.472-2.528 4.288 0 2.080 1.44 3.52t3.552 1.472z"/>

</symbol>
<symbol id="thunderstorm" viewBox="0 0 32 32">
<title>thunderstorm</title>
<path d="M0 11.008q0-2.88 2.048-4.928t4.96-2.080q0.544 0 0.992 0.064 1.376-1.952 3.488-2.976 2.176-1.056 4.512-1.056t4.48 1.056q2.112 1.024 3.52 2.976 0.416-0.064 0.992-0.064 2.88 0 4.928 2.080t2.048 4.928-2.048 4.928-4.928 2.080q-1.344 0-2.496-0.448-2.432 2.112-5.824 2.368l-0.672 2.080 1.984 1.984-5.984 6.016 1.984-6.016-1.984-1.984 2.176-2.208q-2.688-0.48-4.672-2.24-1.184 0.448-2.496 0.448-2.88 0-4.96-2.080t-2.048-4.928zM2.016 11.008q0 2.048 1.44 3.52t3.552 1.472q1.536 0 2.848-0.928 2.464 2.944 6.144 2.944l1.376-0.192q2.848-0.48 4.736-2.752 1.312 0.928 2.88 0.928 2.048 0 3.52-1.472t1.472-3.52-1.472-3.52-3.52-1.472q-0.992 0-1.888 0.384-1.024-1.984-2.912-3.2-1.888-1.184-4.192-1.184t-4.192 1.184q-1.888 1.216-2.944 3.2-0.864-0.384-1.856-0.384-2.080 0-3.552 1.472t-1.44 3.52z"/>

</symbol>
<symbol id="tornado" viewBox="0 0 33 32">
<title>tornado</title>
<path d="M4.672 23.072q-0.352 0-0.672-0.128-1.824-0.8-2.912-2.432t-1.088-3.68q0-2.304 1.408-4.096t3.584-2.336v-0.256q0-4.096 2.944-7.040t7.072-2.944q3.68 0 6.464 2.368t3.36 5.984q0.128 0.672-0.256 1.248t-1.088 0.672q-0.672 0.096-1.248-0.288t-0.672-1.056q-0.448-2.4-2.272-4t-4.288-1.568q-2.752 0-4.736 1.952t-1.952 4.672q0 0.48 0.16 1.376l0.416 2.112-2.368-0.16q-1.28 0-2.24 0.992t-0.96 2.368q0 0.992 0.544 1.824t1.44 1.216q0.8 0.352 0.96 1.152t-0.288 1.408-1.312 0.64zM28.32 8.512q2.080 0 3.552 1.472t1.44 3.52-1.44 3.552-3.552 1.472h-3.648q0.32 0.832 0.32 1.632 0 2.080-1.44 3.552t-3.552 1.44h-8.32q-0.672 0-1.184 0.512t-0.48 1.184 0.48 1.184 1.184 0.48 1.152 0.48 0.48 1.184-0.48 1.152-1.152 0.512q-2.080 0-3.552-1.472t-1.44-3.52 1.44-3.552 3.552-1.472h8.32q0.672 0 1.184-0.48t0.512-1.184-0.512-1.152-1.184-0.48h-7.68q-0.672 0-1.152-0.512t-0.48-1.184 0.48-1.184 1.152-0.48h16q0.672 0 1.184-0.48t0.512-1.184-0.512-1.152-1.184-0.512-1.152-0.512-0.48-1.184 0.48-1.152 1.152-0.48z"/>

</symbol></svg>